PathFileType	4	(X/Y/Z)	 s07c0101.trc
DataRate	CameraRate	NumFrames	NumMarkers	Units	OrigDataRate	OrigDataStartFrame	OrigNumFrames
200	200	5	48	mm	200	1001	2000
Frame#	Time	racr			lacr			c7			jug			rlel			rdr			llel			ldr			s2			lic			ric			lasi			rasi			rpsi			lpsi			rgt			lgt			rth1			rth2			rth3			rth4			rlfc			rmfc			rsh1			rsh2			rsh3			rsh4			rlmal			rcal			rtoe			rmt5			lth1			lth2			lth4			lth3			llfc			lmfc			lsh1			lsh2			lsh3			lsh4			llmal			lcal			ltoe			lmt5			SBIKE			LBIKE			RBIKE			
		X1	Y1	Z1	X2	Y2	Z2	X3	Y3	Z3	X4	Y4	Z4	X5	Y5	Z5	X6	Y6	Z6	X7	Y7	Z7	X8	Y8	Z8	X9	Y9	Z9	X10	Y10	Z10	X11	Y11	Z11	X12	Y12	Z12	X13	Y13	Z13	X14	Y14	Z14	X15	Y15	Z15	X16	Y16	Z16	X17	Y17	Z17	X18	Y18	Z18	X19	Y19	Z19	X20	Y20	Z20	X21	Y21	Z21	X22	Y22	Z22	X23	Y23	Z23	X24	Y24	Z24	X25	Y25	Z25	X26	Y26	Z26	X27	Y27	Z27	X28	Y28	Z28	X29	Y29	Z29	X30	Y30	Z30	X31	Y31	Z31	X32	Y32	Z32	X33	Y33	Z33	X34	Y34	Z34	X35	Y35	Z35	X36	Y36	Z36	X37	Y37	Z37	X38	Y38	Z38	X39	Y39	Z39	X40	Y40	Z40	X41	Y41	Z41	X42	Y42	Z42	X43	Y43	Z43	X44	Y44	Z44	X45	Y45	Z45	X46	Y46	Z46	X47	Y47	Z47	X48	Y48	Z48	
1001	5.0050	481.500474	1415.517491	-89.012820	470.444456	1424.108834	-352.490982	436.479639	1481.082079	-213.796102	377.007301	1339.963072	-227.318250	504.573356	1093.606734	65.662938	713.163011	915.632135	-41.890763	517.194530	1116.994052	-513.115468	719.238458	917.888752	-409.440891	-140.295636	1211.169479	-208.493017	8.226255	1294.449322	-358.130568	40.373805	1242.916587	-74.278319	33.321346	1220.988112	-345.706867	59.794399	1200.461554	-95.654500	-110.031456	1247.181103	-155.359928	-114.760293	1271.202829	-260.713374	4.282022	1117.937944	-38.843490	-43.056681	1135.660859	-397.609996	129.440582	1040.629607	-41.471550	210.636199	1009.617635	-54.700150	268.013007	946.259830	-55.996722	227.663826	1037.118314	-72.696402	357.120628	840.332846	-92.001497	341.782690	824.457158	-196.297217	265.386384	732.833317	-65.723754	226.900917	654.067438	-77.627069	155.863621	603.241931	-70.842923	239.764479	644.274705	-115.641616	67.417221	504.978454	-66.212355	3.356855	542.448479	-98.127712	113.857955	274.053048	-122.929302	52.211256	327.413549	-50.189287	41.323841	1035.739828	-411.533490	117.950978	992.433224	-414.722859	143.428336	1017.781509	-407.687823	163.610795	916.091242	-411.135337	276.433635	783.050356	-384.775928	270.129719	762.136437	-291.518505	250.368266	636.454100	-409.601231	261.048346	552.746574	-391.663513	228.335004	468.549948	-398.074156	263.796447	555.172588	-349.511036	202.118797	333.779132	-396.325603	141.573944	279.855796	-366.211595	428.066316	324.764584	-351.322504	357.926648	281.932427	-419.154910	-260.302783	980.109926	-228.913503	-76.218702	83.301115	-435.241516	-82.021242	79.291864	-37.870719	
1002	5.0100	479.345043	1417.656072	-86.198674	471.639095	1425.314880	-350.650130	435.895713	1483.804229	-212.140396	375.542464	1343.109722	-226.208552	504.359685	1094.381576	65.157088	713.194538	915.825206	-42.316317	518.468918	1118.540367	-513.210195	719.145974	918.072972	-409.985570	-139.051372	1210.840269	-211.379835	7.914192	1293.577797	-360.675550	39.667063	1244.387748	-74.484582	35.318845	1219.544512	-348.043680	60.124547	1201.447107	-98.211586	-109.235730	1247.035738	-158.464165	-113.241247	1270.321268	-264.111825	5.035118	1119.153094	-40.596575	-41.581386	1133.357120	-399.406234	131.316654	1043.582421	-42.912402	213.248993	1014.268766	-56.184652	271.725760	951.978426	-57.897955	230.283683	1043.040954	-72.621564	363.079962	848.201483	-93.308410	348.230144	832.310158	-197.325025	271.118316	741.363354	-66.686311	231.931100	662.807926	-78.559789	160.561313	612.640144	-71.555586	244.788776	652.945885	-116.538321	71.492309	515.008209	-66.662117	7.551049	553.024764	-98.609481	116.952737	284.095623	-122.855426	55.487575	337.830532	-50.235788	40.209312	1031.801451	-413.441708	115.790865	986.279218	-416.791297	142.019514	1010.918819	-409.984785	159.254124	908.765270	-413.225817	269.157955	773.256908	-386.586056	263.390567	753.179390	-294.323847	244.390336	626.940899	-411.050856	256.116981	543.242489	-393.037479	224.212066	458.841622	-399.329378	257.962961	546.183629	-350.668253	199.202592	323.521320	-396.969840	138.531534	270.069917	-366.834103	425.177803	313.935792	-351.305888	355.067208	271.455602	-419.408364	-260.280857	980.163933	-229.228994	-76.211652	83.267166	-435.276014	-82.038045	79.329677	-37.888178	
1003	5.0150	476.970521	1420.005935	-83.111501	472.893408	1426.615421	-348.403339	435.023069	1486.286064	-210.074338	374.576848	1345.683295	-224.685210	504.158251	1094.933075	64.337882	713.255301	916.123879	-42.863803	519.742634	1120.285455	-513.144161	719.108006	918.263071	-410.503227	-137.687952	1210.422025	-214.544777	-1.243528	1294.890822	-361.657441	38.956583	1245.207981	-76.734476	37.777244	1217.480391	-350.709839	60.381279	1202.600494	-100.262103	-108.443051	1247.045529	-161.779169	-111.693541	1269.519525	-267.715817	5.993205	1120.564517	-42.318241	-39.901823	1131.098365	-401.246046	133.146162	1047.057798	-44.974478	215.713251	1019.310060	-57.946481	275.327003	958.088851	-59.815405	232.473006	1048.678753	-73.083468	368.658064	856.388053	-94.243152	354.377603	840.874486	-198.191419	276.799995	750.030478	-67.743129	237.062117	671.823449	-79.556874	165.651425	622.095170	-72.329609	250.246781	661.845403	-117.325423	75.743222	524.987205	-67.139843	11.623546	563.149049	-99.124610	120.817166	294.225214	-122.932807	59.456450	348.144498	-50.366484	39.142742	1027.866401	-415.344111	113.490074	980.052494	-419.071884	140.445853	1003.951614	-412.418295	154.561886	901.256758	-415.671040	261.452722	763.933654	-388.606474	255.484321	744.549914	-296.147463	237.877632	617.740353	-412.637931	250.457721	534.272493	-394.303269	219.548298	449.489562	-400.454303	252.090690	537.188054	-352.013165	195.734223	313.754631	-397.467062	134.849060	260.884981	-367.349399	421.705474	303.362385	-351.294079	351.516033	260.600487	-419.069655	-260.290880	980.090087	-229.213648	-76.213676	83.254706	-435.295983	-82.017974	79.347810	-37.907756	
1004	5.0200	474.400825	1422.522275	-79.774126	474.208423	1427.995391	-345.991174	434.161831	1488.735030	-207.741861	373.687886	1348.192354	-222.841899	503.637391	1095.760077	63.548021	713.361858	916.512047	-43.503203	520.962614	1122.188234	-512.923830	719.117236	918.518148	-410.906472	-136.187023	1210.024268	-217.943359	1.101409	1293.549455	-364.830189	38.394612	1246.146961	-80.168124	39.929958	1215.905462	-352.770459	60.633894	1203.946435	-102.330662	-107.632473	1247.051334	-165.325882	-109.982197	1268.673103	-271.583806	6.915043	1122.417304	-44.131743	-38.102477	1128.685725	-403.098733	134.970918	1050.894093	-47.299559	218.174912	1024.742016	-59.647022	278.900427	964.659944	-61.542588	234.425591	1054.595478	-74.342589	374.312392	864.880191	-95.510247	360.560868	849.467451	-199.715351	282.560089	759.072001	-68.863308	242.299182	681.077725	-80.603939	170.386524	631.813551	-73.232171	255.165031	670.802479	-118.453757	80.174514	534.877521	-67.635998	15.857329	573.242815	-99.608690	125.447311	304.436019	-122.950943	63.851326	358.235054	-50.922929	38.079708	1023.977968	-417.233513	111.026145	973.964460	-421.400539	138.732619	997.195779	-415.028565	149.833251	893.787741	-417.666312	254.093783	754.715422	-390.227332	249.106481	732.980833	-299.632776	230.848146	608.650516	-414.286040	244.161649	525.718410	-395.743173	214.194290	440.281662	-401.584881	245.745378	528.634333	-353.370371	191.641375	304.740879	-398.019280	130.794229	251.671969	-367.386374	417.634412	292.989824	-351.232225	347.272804	250.638306	-419.149943	-260.234558	980.233374	-229.643271	-76.214903	83.245157	-435.291784	-82.026588	79.366651	-37.906304	
1005	5.0250	471.654901	1425.146591	-76.359429	475.503017	1429.365760	-343.130851	433.292599	1491.096885	-205.201638	372.809779	1350.601575	-220.733565	503.196581	1096.264366	62.204130	713.395520	916.857994	-44.095353	522.211954	1124.218135	-512.306182	719.179652	918.758655	-411.258134	-135.669742	1210.144839	-220.651279	3.570421	1292.244524	-368.010923	37.643347	1247.524839	-82.156510	42.366966	1214.422291	-355.164256	60.935606	1205.420472	-104.572189	-106.846753	1247.135372	-168.999729	-108.207176	1267.938788	-275.646176	7.772444	1124.406046	-45.978125	-36.308252	1126.406155	-404.907220	136.745726	1055.113210	-49.594378	220.585928	1030.509191	-61.497832	282.474455	971.704353	-63.059186	236.289124	1060.805253	-76.238142	380.016116	873.773341	-96.838431	366.604777	858.188924	-201.108695	288.297491	768.166702	-70.076746	247.660412	690.368800	-81.730442	175.605531	641.463890	-74.096844	260.557347	679.772486	-119.339916	84.780546	544.634949	-68.145813	20.169858	583.115522	-100.032132	130.922499	314.708989	-122.947248	69.602235	369.207249	-50.088909	36.987239	1020.191080	-419.107599	108.586007	967.956293	-423.851327	136.915356	990.198866	-417.581775	144.966019	886.433423	-419.447197	245.991458	746.074636	-392.337638	239.168748	726.241395	-301.536425	223.576642	599.930284	-415.935209	237.624625	517.243537	-397.315137	208.203817	431.551936	-402.699141	239.120834	520.249314	-354.783951	186.687448	295.808170	-398.205017	125.681143	243.903389	-367.920143	413.026862	282.794837	-351.250877	342.427023	240.948962	-419.126144	-260.199523	980.355039	-230.012586	-76.216103	83.239894	-435.319926	-82.021839	79.392507	-37.922049	
